<svg id="Layer_1" data-name="Layer 1" xmlns="http://www.w3.org/2000/svg" viewBox="0 0 137.32 137.32"><defs><style>.cls-1{fill:#fff;}</style></defs><g id="behance"><path class="cls-1" d="M175.89,209.82c0,3-1,5-3.13,6a11.28,11.28,0,0,1-4.88.83H156.19V203.87H168a12,12,0,0,1,4.8.83A5.12,5.12,0,0,1,175.89,209.82Z" transform="translate(-116.65 -132.94)"/><path class="cls-1" d="M167.88,195.9H156.19V185.33h10.47a18.35,18.35,0,0,1,5.7.75c1.69.69,2.56,2.17,2.56,4.41,0,2-.65,3.46-1.95,4.25A10,10,0,0,1,167.88,195.9Z" transform="translate(-116.65 -132.94)"/><path class="cls-1" d="M211.9,198.13a8.08,8.08,0,0,0-5.52-1.91,7.34,7.34,0,0,0-5.55,2,9.84,9.84,0,0,0-2.49,5.49h16A7.64,7.64,0,0,0,211.9,198.13Zm0,0a8.08,8.08,0,0,0-5.52-1.91,7.34,7.34,0,0,0-5.55,2,9.84,9.84,0,0,0-2.49,5.49h16A7.64,7.64,0,0,0,211.9,198.13Zm22-45.1A68.72,68.72,0,1,0,254,201.6,68.58,68.58,0,0,0,233.87,153Zm-38.53,26.7h20.89v4.84H195.34ZM183.9,218.19a13.15,13.15,0,0,1-8.84,6.21,33.7,33.7,0,0,1-6.78.65H146.6V177h23.23c5.88.1,10,1.8,12.49,5.12a12.26,12.26,0,0,1,2.2,7.36,10.77,10.77,0,0,1-2.24,7.07,12.31,12.31,0,0,1-3.64,2.74,10.75,10.75,0,0,1,5.55,4.22,12.93,12.93,0,0,1,1.84,7A13.93,13.93,0,0,1,183.9,218.19Zm17.94-.83A9.33,9.33,0,0,0,207,218.7a7.83,7.83,0,0,0,5.16-1.62,7.56,7.56,0,0,0,1.91-2.46h9.49a11.37,11.37,0,0,1-3.43,6.42c-3.17,3.47-7.65,5.2-13.38,5.2a19.26,19.26,0,0,1-12.52-4.37c-3.61-2.92-5.42-7.64-5.42-14.25,0-6.13,1.63-10.86,4.88-14.14a17.2,17.2,0,0,1,12.73-4.94,20.63,20.63,0,0,1,8.37,1.66,14.76,14.76,0,0,1,6.14,5.26,17.87,17.87,0,0,1,2.81,7.36,45.62,45.62,0,0,1,.32,7h-25.9C198.26,213.43,199.53,216,201.84,217.36Zm4.54-21.14a7.34,7.34,0,0,0-5.55,2,9.84,9.84,0,0,0-2.49,5.49h16a7.64,7.64,0,0,0-2.46-5.6A8.08,8.08,0,0,0,206.38,196.22Z" transform="translate(-116.65 -132.94)"/></g></svg>