<svg id="Layer_1" data-name="Layer 1" xmlns="http://www.w3.org/2000/svg" viewBox="0 0 137.32 137.32"><defs><style>.cls-1{fill:#fff;}.cls-2{fill:none;}</style></defs><g id="instagram"><path class="cls-1" d="M190.35,192.57a19.34,19.34,0,1,0,19.33,19.34A19.34,19.34,0,0,0,190.35,192.57Zm0,31.89a12.56,12.56,0,1,1,12.55-12.55A12.57,12.57,0,0,1,190.35,224.46Z" transform="translate(-121.69 -143.25)"/><circle class="cls-1" cx="88.76" cy="48.56" r="4.51"/><path class="cls-1" d="M238.91,163.34A68.72,68.72,0,1,0,259,211.91,68.59,68.59,0,0,0,238.91,163.34Zm-7.25,65.81a31.56,31.56,0,0,1-1.92,10.25,21.65,21.65,0,0,1-12.12,12.3,30.42,30.42,0,0,1-10.1,1.91c-4.4.22-5.81.26-17.1.26s-12.67,0-17.07-.26a29.89,29.89,0,0,1-10.06-1.91,20.21,20.21,0,0,1-7.36-4.91,19.61,19.61,0,0,1-4.77-7.39,31,31,0,0,1-1.95-10.25c-.21-4.47-.25-5.92-.25-17.35s0-12.85.25-17.32a30.47,30.47,0,0,1,1.95-10.21,19.89,19.89,0,0,1,4.77-7.47,20.6,20.6,0,0,1,7.36-4.87,30.8,30.8,0,0,1,10.06-2c4.4-.18,5.81-.22,17.07-.22s12.7,0,17.1.22a31.36,31.36,0,0,1,10.1,2A21,21,0,0,1,225,176.8a20.76,20.76,0,0,1,4.76,7.47,31.07,31.07,0,0,1,1.92,10.21c.18,4.47.29,5.92.29,17.32S231.84,224.68,231.66,229.15ZM226,187.26a18.55,18.55,0,0,0-4.33-6.67,19,19,0,0,0-6.68-4.37,28.47,28.47,0,0,0-9.16-1.73c-4-.18-5.27-.22-15.51-.22s-11.51,0-15.52.22a28.33,28.33,0,0,0-9.13,1.73,18.67,18.67,0,0,0-6.67,4.37,18,18,0,0,0-4.33,6.67,27.17,27.17,0,0,0-1.77,9.13c-.18,4-.22,5.3-.22,15.52s0,11.5.22,15.51a27.53,27.53,0,0,0,1.77,9.16,18.18,18.18,0,0,0,4.33,6.64,18.54,18.54,0,0,0,6.67,4.37,28.33,28.33,0,0,0,9.13,1.73c4,.18,5.3.22,15.52.22s11.51,0,15.51-.22a28.47,28.47,0,0,0,9.16-1.73,19.37,19.37,0,0,0,11-11,27.64,27.64,0,0,0,1.73-9.16c.18-4,.25-5.3.25-15.51s-.07-11.51-.25-15.52A27.28,27.28,0,0,0,226,187.26Zm-5,39.87a21,21,0,0,1-1.3,7,11.51,11.51,0,0,1-2.81,4.33,11.32,11.32,0,0,1-4.33,2.82,19.81,19.81,0,0,1-7,1.3c-4,.18-5.16.21-15.22.21s-11.23,0-15.19-.21a19.81,19.81,0,0,1-7-1.3,10.82,10.82,0,0,1-4.33-2.82,11.18,11.18,0,0,1-2.82-4.33,21.28,21.28,0,0,1-1.3-7c-.18-4-.21-5.16-.21-15.22s0-11.26.21-15.23a21.34,21.34,0,0,1,1.3-7,12.5,12.5,0,0,1,7.15-7.15,19.81,19.81,0,0,1,7-1.3c4-.18,5.16-.21,15.19-.21s11.25,0,15.22.21a19.81,19.81,0,0,1,7,1.3,11.81,11.81,0,0,1,4.33,2.82,11.59,11.59,0,0,1,2.81,4.33,21.07,21.07,0,0,1,1.3,7c.18,4,.22,5.16.22,15.23S221.19,223.16,221,227.13Z" transform="translate(-121.69 -143.25)"/><path class="cls-2" d="M227.76,196.39a27.28,27.28,0,0,0-1.73-9.13,18.55,18.55,0,0,0-4.33-6.67,19,19,0,0,0-6.68-4.37,28.47,28.47,0,0,0-9.16-1.73c-4-.18-5.27-.22-15.51-.22s-11.51,0-15.52.22a28.33,28.33,0,0,0-9.13,1.73,18.67,18.67,0,0,0-6.67,4.37,18,18,0,0,0-4.33,6.67,27.17,27.17,0,0,0-1.77,9.13c-.18,4-.22,5.3-.22,15.52s0,11.5.22,15.51a27.53,27.53,0,0,0,1.77,9.16,18.18,18.18,0,0,0,4.33,6.64,18.54,18.54,0,0,0,6.67,4.37,28.33,28.33,0,0,0,9.13,1.73c4,.18,5.3.22,15.52.22s11.51,0,15.51-.22a28.47,28.47,0,0,0,9.16-1.73,19.37,19.37,0,0,0,11-11,27.64,27.64,0,0,0,1.73-9.16c.18-4,.25-5.3.25-15.51S227.94,200.4,227.76,196.39ZM221,227.13a21,21,0,0,1-1.3,7,11.51,11.51,0,0,1-2.81,4.33,11.32,11.32,0,0,1-4.33,2.82,19.81,19.81,0,0,1-7,1.3c-4,.18-5.16.21-15.22.21s-11.23,0-15.19-.21a19.81,19.81,0,0,1-7-1.3,10.82,10.82,0,0,1-4.33-2.82,11.18,11.18,0,0,1-2.82-4.33,21.28,21.28,0,0,1-1.3-7c-.18-4-.21-5.16-.21-15.22s0-11.26.21-15.23a21.34,21.34,0,0,1,1.3-7,12.5,12.5,0,0,1,7.15-7.15,19.81,19.81,0,0,1,7-1.3c4-.18,5.16-.21,15.19-.21s11.25,0,15.22.21a19.81,19.81,0,0,1,7,1.3,11.81,11.81,0,0,1,4.33,2.82,11.59,11.59,0,0,1,2.81,4.33,21.07,21.07,0,0,1,1.3,7c.18,4,.22,5.16.22,15.23S221.19,223.16,221,227.13Z" transform="translate(-121.69 -143.25)"/><path class="cls-2" d="M227.76,196.39a27.28,27.28,0,0,0-1.73-9.13,18.55,18.55,0,0,0-4.33-6.67,19,19,0,0,0-6.68-4.37,28.47,28.47,0,0,0-9.16-1.73c-4-.18-5.27-.22-15.51-.22s-11.51,0-15.52.22a28.33,28.33,0,0,0-9.13,1.73,18.67,18.67,0,0,0-6.67,4.37,18,18,0,0,0-4.33,6.67,27.17,27.17,0,0,0-1.77,9.13c-.18,4-.22,5.3-.22,15.52s0,11.5.22,15.51a27.53,27.53,0,0,0,1.77,9.16,18.18,18.18,0,0,0,4.33,6.64,18.54,18.54,0,0,0,6.67,4.37,28.33,28.33,0,0,0,9.13,1.73c4,.18,5.3.22,15.52.22s11.51,0,15.51-.22a28.47,28.47,0,0,0,9.16-1.73,19.37,19.37,0,0,0,11-11,27.64,27.64,0,0,0,1.73-9.16c.18-4,.25-5.3.25-15.51S227.94,200.4,227.76,196.39Zm-3.54,32.44a23.86,23.86,0,0,1-1.44,7.79,13.11,13.11,0,0,1-3.1,4.83,12.3,12.3,0,0,1-4.76,3.14,20.89,20.89,0,0,1-7.73,1.45c-4.36.21-5.66.25-16.77.25s-12.34,0-16.74-.25a20.62,20.62,0,0,1-7.69-1.45,12.23,12.23,0,0,1-4.8-3.14,12.53,12.53,0,0,1-3.06-4.83,23,23,0,0,1-1.45-7.79c-.21-4.44-.25-5.78-.25-17s0-12.56.25-17a22.76,22.76,0,0,1,1.45-7.79,12.31,12.31,0,0,1,3.06-4.83A12.56,12.56,0,0,1,166,179a20.62,20.62,0,0,1,7.69-1.45c4.4-.21,5.7-.25,16.74-.25s12.41,0,16.77.25a20.89,20.89,0,0,1,7.73,1.45,12.65,12.65,0,0,1,4.76,3.14,12.87,12.87,0,0,1,3.1,4.83,23.61,23.61,0,0,1,1.44,7.79c.18,4.44.22,5.78.22,17S224.4,224.39,224.22,228.83Z" transform="translate(-121.69 -143.25)"/><path class="cls-2" d="M190.35,192.57a19.34,19.34,0,1,0,19.33,19.34A19.34,19.34,0,0,0,190.35,192.57Zm0,31.89a12.56,12.56,0,1,1,12.55-12.55A12.57,12.57,0,0,1,190.35,224.46Z" transform="translate(-121.69 -143.25)"/><circle class="cls-2" cx="88.76" cy="48.56" r="4.51"/></g></svg>