<svg id="Layer_1" data-name="Layer 1" xmlns="http://www.w3.org/2000/svg" viewBox="0 0 137.32 137.32"><defs><style>.cls-1{fill:#fff;}</style></defs><g id="linkedin"><path class="cls-1" d="M249.39,162.22a68.74,68.74,0,1,0,20.09,48.56A68.63,68.63,0,0,0,249.39,162.22ZM183.9,241.38H169.68V195.49H183.9Zm-7.18-51.92a8.48,8.48,0,1,1,8.41-8.48A8.42,8.42,0,0,1,176.72,189.46Zm60.43,51.92H223v-24.1c0-6.6-2.49-10.28-7.72-10.28-5.7,0-8.66,3.82-8.66,10.28v24.1H193V195.49h13.64v6.17a16,16,0,0,1,13.82-7.58c9.74,0,16.7,5.95,16.7,18.22Z" transform="translate(-132.16 -142.12)"/></g></svg>