<svg id="Layer_1" data-name="Layer 1" xmlns="http://www.w3.org/2000/svg" viewBox="0 0 137.32 137.32"><defs><style>.cls-1{fill:#fff;}</style></defs><g id="twitter"><path class="cls-1" d="M241.6,151.79a68.72,68.72,0,1,0,20.1,48.56A68.58,68.58,0,0,0,241.6,151.79Zm-19.48,33.62c.94,21.11-14.79,44.67-42.68,44.67a42.44,42.44,0,0,1-23-6.75,30.23,30.23,0,0,0,22.22-6.2,15.08,15.08,0,0,1-14-10.43,15.27,15.27,0,0,0,6.78-.25,15.09,15.09,0,0,1-12.05-14.94,14.41,14.41,0,0,0,6.82,1.88,15,15,0,0,1-4.66-20,42.67,42.67,0,0,0,30.92,15.7,15,15,0,0,1,14.65-18.44A14.88,14.88,0,0,1,218,175.35a29.45,29.45,0,0,0,9.57-3.65A15,15,0,0,1,221,180a30.28,30.28,0,0,0,8.63-2.34A30.74,30.74,0,0,1,222.12,185.41Z" transform="translate(-124.38 -131.69)"/></g></svg>