<svg id="white" xmlns="http://www.w3.org/2000/svg" viewBox="0 0 58.24 48.03"><defs><style>.cls-1{fill:#f3f3f3;}</style></defs><path class="cls-1" d="M186.5,162.1a1.69,1.69,0,0,1-.08-.53c-.15-.21-.12-.36.08-.46s.3-.38,0-.53a.61.61,0,0,1-.27-.15c-.13-.1-.11-.23,0-.38v-.15a10.62,10.62,0,0,1,.22-2.21,1.18,1.18,0,0,0,0-.72c-.08-.13-.32-.24-.72-.34l.6-.08c.31-.1.41-.25.31-.46a2.83,2.83,0,0,0-.08-.38.5.5,0,0,0-.46-.37,2.42,2.42,0,0,1,1.37-.69l5.17,0,1.44.08c1.06,0,2.66.06,4.79.06,1,0,2.38.07,4.25.06H204q1.59-.08,4.86-.09,5,0,7.52.06l4.94.06,1.75-.08,5.63-.09,7.52.06,5.47-.1h.91c.36,0,.49.15.39.46a3.52,3.52,0,0,0-.15.83c-.06.05,0,.16,0,.31a9.3,9.3,0,0,1,.15,1.29c0,.15.1.28.31.38a.54.54,0,0,1,.3.53,4,4,0,0,0,.16,1,1.2,1.2,0,0,1-.08,1,1.06,1.06,0,0,0-.07.45.9.9,0,0,1-1,1.14l-4.33,0c-1,.05-2.4.08-4.33.08h-4.33l-9.43,0h-5l-12.69,0-11.25,0-2.43-.07C188.3,162.12,187.51,162.1,186.5,162.1Zm1.35-5.71,6.77-.24a16.5,16.5,0,0,0-1.83-.15,16.23,16.23,0,0,0-2.81.24A20.79,20.79,0,0,1,187.85,156.39Zm9.81.05h5.09v-.07h-3.42l-2.74-.06-2.13-.08c-1.06,0-2.61.06-4.63.17l-2.28.08a.81.81,0,0,0-.53.31v.07l.3-.07-.07.45a1.74,1.74,0,0,1,.45-.3.43.43,0,0,1,.31-.16c.45-.05,1.05-.1,1.78-.15s1.61-.08,2.62-.09Q194.17,156.45,197.66,156.44Zm-9.42.94,10.33-.33-4.79-.06A33.44,33.44,0,0,0,188.24,157.38Zm6,.52,6.08,0v-.07h-6.08Zm-2.89.39,3.88,0v-.07h-3.88Zm-4,.46H187v.16a1.32,1.32,0,0,0,.38.15l1.14-.08a12.08,12.08,0,0,1,1.75-.08l2.05-.09c2-.1,3.52-.16,4.48-.16,1.32-.05,3.29,0,5.93.06l6.84.06h1.37v-.08c-1.12-.1-1.95-.15-2.51-.15l-6.39,0h-5l-2.89-.07c-.91,0-2.28.06-4.1.16a6.94,6.94,0,0,1-1.22.08,1.3,1.3,0,0,0-.53.08A.76.76,0,0,1,187.33,158.75Zm36,.13h1.83l2.81-.08h1.56a5.59,5.59,0,0,1,1.71.22c2.38,0,4.15,0,5.32.07h1.74v.08h-1.06a7.83,7.83,0,0,0,1.52.15,3.55,3.55,0,0,0,1.75-.23l-.69-.08c0-.1-.28-.15-.83-.15h-4.33l.83-.15h.84c-2.84-.1-5-.14-6.46-.14C227.5,158.57,225.33,158.68,223.35,158.88Zm-3.8-.29-8.06,0v.15c.6.05,1.49.08,2.66.07l5.39-.09Zm19.69.1H240a.07.07,0,0,0-.08-.08h-.68Zm-16.88,0h-2.2v.08l2.2.15Zm-24.85.83h-.91v.15c1.22-.11,2.13-.16,2.74-.16l3.42-.08,3.42.06,7.67,0q4.34,0,6.54-.09l3.5.06c1,0,2.53,0,4.55-.16,1.27,0,2.23,0,2.89-.08v-.08h-1.75l.23-.15v-.07l-3.42.08V159H228l-.15.08c-1.93.11-3.35.16-4.26.16l-.34,0a.39.39,0,0,1-.42-.26h-.15a14.48,14.48,0,0,0-1.83-.07c0,.05,0,.12.16.22l-10.34,0v-.15l8.28,0V159l-.53-.07c-.3,0-.68,0-1.14,0a14.2,14.2,0,0,1-1.67,0l-8.36-.05c-2.53,0-6.31-.06-11.32,0-1.12,0-2.74.05-4.87.16l-.61.08a2.47,2.47,0,0,1-.76.15,5.87,5.87,0,0,0-1.89.24l-.08.07q.15.3.3.3a1.18,1.18,0,0,0,.38-.07,1.16,1.16,0,0,1,.54-.16l.07.16a1.23,1.23,0,0,0-.53.15V160c.56,0,1.34-.05,2.36-.15l.22-.08a1.27,1.27,0,0,1,.54-.15h3.57c.55,0,1.34-.06,2.35-.16Zm6.84-.4h0Zm-14.51.57v-.08a.77.77,0,0,0,.26-.07c.13-.06.24,0,.35.15Zm8.74.2H194.7V160h3.88Zm-4.56,0h-2.51V160H194Zm-1,.39h-2.2v.08h2.28C193.11,160.28,193.08,160.26,193,160.26Zm24.7.84v.08c1.52.1,2.66.14,3.42.14l5.32-.09,3.42-.08h3.58q2-.09,6.23-.1a2.6,2.6,0,0,0,.61-.15v-.08l-.39-.07c-.55,0-1.36.08-2.43.08l-7.45,0-.53-.07a.07.07,0,0,1,.08-.08c1.62-.11,2.81-.16,3.57-.16,1.42-.05,3.57-.09,6.46-.09a1.12,1.12,0,0,0,.46-.08v-.08h-3.2q-1.29.08-4,.09h-4.11q-4.56.17-6.84.17h-7.6l-6-.06a17.51,17.51,0,0,0-2,0c-.58,0-1.07,0-1.48,0h-1.67l-6.23.1-7.3.24-.3.08c.05,0,.07,0,.08.08l-.31.45,14.75-.34V161L197,161h-6.92a2.38,2.38,0,0,1,.34,0,1.14,1.14,0,0,0,.5,0,20.24,20.24,0,0,0,2.05-.08l2.12-.08a18.36,18.36,0,0,1,2.06,0l1.52,0h1.82c1.11-.05,2.76-.08,4.94-.08l5.32.06,7.75,0c1-.06,1.9-.07,2.66-.05s1.37,0,1.83,0l4-.08h1.9v.15Q221.46,161.17,217.73,161.1ZM204.89,161v.15a4.16,4.16,0,0,0,.91.07,3,3,0,0,0,1.07-.15C206,161.06,205.35,161,204.89,161Zm-16.42.19-.76.15C188,161.69,188.22,161.64,188.47,161.18Z" transform="translate(-185.73 -154.63)"/><path class="cls-1" d="M186.55,182.31a1.7,1.7,0,0,1-.07-.53c-.16-.2-.13-.35.07-.45s.3-.38,0-.54a.61.61,0,0,1-.27-.15c-.12-.1-.11-.22,0-.38v-.15a11.32,11.32,0,0,1,.22-2.2,1.22,1.22,0,0,0,0-.73c-.07-.12-.31-.24-.72-.34l.61-.07c.3-.11.4-.26.3-.46a2.54,2.54,0,0,0-.08-.38.52.52,0,0,0-.45-.38,2.4,2.4,0,0,1,1.36-.69h5.17l1.44.07c1.07.05,2.66.07,4.79.06,1,.05,2.38.07,4.26.07h.91c1.06-.06,2.69-.09,4.86-.09q5,0,7.53,0l4.94.07,1.75-.08,5.62-.1,7.52.06,5.48-.09h.91c.35,0,.48.15.38.45a4.35,4.35,0,0,0-.15.84q-.08.08,0,.3a9.7,9.7,0,0,1,.16,1.3c0,.15.1.27.3.37a.56.56,0,0,1,.31.54,4.25,4.25,0,0,0,.15,1,1.24,1.24,0,0,1-.07,1,1.05,1.05,0,0,0-.08.46,1,1,0,0,1-.18.83,1,1,0,0,1-.8.31h-4.33c-1,.05-2.41.08-4.34.09h-4.33l-9.42,0h-5l-12.69,0-11.25,0-2.43-.07C188.35,182.33,187.57,182.31,186.55,182.31Zm1.36-5.7,6.76-.25a15.81,15.81,0,0,0-1.82-.14,17.4,17.4,0,0,0-2.82.23A18.71,18.71,0,0,1,187.91,176.61Zm9.8,0h5.09v-.08h-3.42l-2.73-.07-2.13-.07c-1.07,0-2.61.06-4.64.17l-2.28.08a.83.83,0,0,0-.53.3v.08l.31-.08-.08.46a1.65,1.65,0,0,1,.46-.31.43.43,0,0,1,.3-.15c.46-.05,1.05-.11,1.79-.16s1.6-.08,2.62-.08S195.38,176.67,197.71,176.66Zm-9.42.94,10.33-.33-4.78-.07A34.57,34.57,0,0,0,188.29,177.6Zm6,.51h6.08V178l-6.08,0Zm-2.89.39h3.87v-.07h-3.87Zm-4,.47H187v.15a1.44,1.44,0,0,0,.38.15l1.14-.08a14,14,0,0,1,1.75-.08l2-.08c2-.11,3.52-.16,4.48-.16q2-.09,5.93.06l6.84,0h1.37v-.08c-1.11-.09-1.95-.14-2.51-.14l-6.38-.06h-5l-2.89-.06c-.91,0-2.28,0-4.1.16a6.86,6.86,0,0,1-1.22.08,1.17,1.17,0,0,0-.53.08A.76.76,0,0,1,187.38,179Zm36,.13h1.82L228,179h1.56a5.59,5.59,0,0,1,1.71.22c2.38,0,4.15,0,5.32.06h1.75v.07h-1.07a7.2,7.2,0,0,0,1.53.14,3.49,3.49,0,0,0,1.74-.23l-.68-.07q0-.15-.84-.15h-4.33l.84-.16h.83c-2.84-.09-5-.14-6.46-.13A61.91,61.91,0,0,0,223.41,179.1Zm-3.8-.29-8.06,0V179c.61.05,1.49.07,2.66.07l5.4-.09Zm19.68.1h.76c0-.05,0-.07-.08-.07h-.68Zm-16.87,0h-2.21V179l2.21.14Zm-24.85.83h-.91v.15q1.82-.15,2.73-.15l3.42-.09,3.42.07,7.68,0c2.89,0,5.06,0,6.53-.1l3.5.07c1,0,2.53-.06,4.56-.16,1.26,0,2.23,0,2.89-.09v-.07h-1.75l.23-.15v-.08l-3.42.09v.07H228l-.15.08c-1.93.1-3.34.16-4.26.16l-.34,0c-.18,0-.31-.07-.42-.27h-.15a16.36,16.36,0,0,0-1.82-.07s0,.13.15.23l-10.34,0v-.15l8.29,0v-.07l-.53-.08c-.31,0-.69,0-1.14,0a12.23,12.23,0,0,1-1.68,0l-8.36-.05c-2.53,0-6.3-.06-11.32,0-1.12,0-2.74.06-4.86.17l-.61.07a2.35,2.35,0,0,1-.76.16,6.11,6.11,0,0,0-1.9.23l-.08.08c.11.2.21.3.31.3a1.29,1.29,0,0,0,.38-.08,1.23,1.23,0,0,1,.53-.15l.08.15a1.16,1.16,0,0,0-.54.16v.07a23,23,0,0,0,2.36-.16l.23-.07a1.13,1.13,0,0,1,.53-.16h3.57a23.22,23.22,0,0,0,2.36-.16Zm6.84-.4h0Zm-14.52.57v-.07a1,1,0,0,0,.27-.08c.12-.05.24,0,.34.15Zm8.74.21h-3.87v.07h3.87Zm-4.56,0h-2.51v.07h2.51Zm-1,.38h-2.21v.07h2.28C193.16,180.5,193.14,180.47,193.09,180.47Zm24.7.85v.07q2.28.15,3.42.15l5.32-.09,3.42-.09h3.57c1.37,0,3.44-.08,6.23-.09a2.5,2.5,0,0,0,.61-.15V181L240,181c-.56.06-1.37.08-2.43.09l-7.45,0-.53-.08s0-.07.07-.07c1.62-.11,2.81-.16,3.57-.16,1.42-.06,3.58-.09,6.46-.1a1.05,1.05,0,0,0,.46-.08v-.07h-3.19c-.86.05-2.21.08-4,.08h-4.1q-4.56.17-6.84.18h-2.59l-5,0-6-.06c-.76-.05-1.43-.06-2,0s-1.08,0-1.48.05h-1.68l-6.23.09-7.29.25-.31.08s.08,0,.08.07l-.3.46,14.74-.34v-.16l-6.84,0-6.92,0a1.56,1.56,0,0,1,.35,0,1.26,1.26,0,0,0,.49,0,20.1,20.1,0,0,0,2-.08l2.13-.09c.76,0,1.44-.06,2.05,0s1.11,0,1.52,0h1.82c1.12-.05,2.77-.08,4.94-.09l5.33.06,7.75,0c1,0,1.9-.07,2.66,0l1.82,0,4-.09H229v.15C224,181.28,220.27,181.36,217.79,181.32Zm-12.85-.12v.15a4.14,4.14,0,0,0,.92.08,3.19,3.19,0,0,0,1.06-.16C206.06,181.27,205.4,181.25,204.94,181.2Zm-16.41.2-.76.15C188,181.9,188.28,181.85,188.53,181.4Z" transform="translate(-185.73 -154.63)"/><path class="cls-1" d="M186.61,202.53a1.69,1.69,0,0,1-.08-.53c-.15-.2-.13-.36.08-.46s.3-.38,0-.53c0,0-.13,0-.26-.15s-.12-.23,0-.38v-.15a11.45,11.45,0,0,1,.23-2.21,1.28,1.28,0,0,0,0-.72c-.08-.13-.32-.24-.73-.34l.61-.08q.47-.15.3-.45a1.93,1.93,0,0,0-.07-.38.52.52,0,0,0-.46-.38,2.42,2.42,0,0,1,1.37-.69h5.16l1.45.07c1.06,0,2.66.07,4.79.06,1,.05,2.38.07,4.25.07h.91c1.07,0,2.69-.08,4.87-.09q5,0,7.52.06l4.94.06,1.75-.08,5.62-.09,7.53.06,5.47-.09h.91c.36,0,.48.15.38.46a4.17,4.17,0,0,0-.15.83c0,.06,0,.16,0,.31a9.3,9.3,0,0,1,.15,1.29c0,.15.1.28.31.38a.54.54,0,0,1,.3.53,4,4,0,0,0,.16,1,1.24,1.24,0,0,1-.08,1,1.06,1.06,0,0,0-.07.45,1,1,0,0,1-.19.84,1.05,1.05,0,0,1-.8.31h-4.33c-1,.05-2.41.08-4.33.08l-4.33,0-9.43,0h-5l-12.7,0-11.24,0L189,202.6C188.41,202.55,187.62,202.53,186.61,202.53Zm1.35-5.7,6.76-.25a16.37,16.37,0,0,0-1.82-.15,17.28,17.28,0,0,0-2.81.24C189.18,196.77,188.47,196.83,188,196.83Zm9.81,0,5.09,0v-.07h-3.42l-2.74-.07-2.13-.07c-1.06,0-2.61.05-4.63.16l-2.28.08a.81.81,0,0,0-.53.31v.07l.3-.07-.07.45a1.74,1.74,0,0,1,.45-.3.43.43,0,0,1,.3-.15c.46-.06,1-.11,1.79-.16s1.61-.08,2.62-.08C193.69,196.91,195.43,196.88,197.77,196.88Zm-9.43.93,10.34-.33-4.79-.06A33.57,33.57,0,0,0,188.34,197.81Zm6,.52,6.08,0v-.07h-6.08Zm-2.89.39h3.88v-.08h-3.88Zm-4,.46h-.38v.16a1.32,1.32,0,0,0,.38.15l1.14-.08a13.69,13.69,0,0,1,1.74-.08l2.06-.08c2-.11,3.52-.17,4.48-.17,1.32-.05,3.29,0,5.93.06l6.84.06H211v-.08c-1.12-.1-2-.15-2.51-.14l-6.39-.06h-5l-2.89-.07c-.91,0-2.28.06-4.1.16a6.08,6.08,0,0,1-1.22.08,1.3,1.3,0,0,0-.53.08A.76.76,0,0,1,187.44,199.18Zm36,.14h1.82l2.82-.08h1.55a5.48,5.48,0,0,1,1.71.23c2.39,0,4.16,0,5.32.06h1.75v.08h-1.06a7.76,7.76,0,0,0,1.52.15,3.57,3.57,0,0,0,1.75-.23l-.69-.08c0-.1-.28-.15-.83-.15h-4.34l.84-.16h.84c-2.84-.1-5-.14-6.46-.14A64.76,64.76,0,0,0,223.46,199.32Zm-3.8-.3-8.06,0v.15c.61.05,1.5.08,2.66.07l5.4-.09Zm19.68.1h.76c0-.05,0-.08-.07-.08h-.69Zm-16.87,0h-2.2v.07l2.2.15Zm-24.85.83h-.91v.15c1.22-.1,2.13-.16,2.74-.16l3.41-.08,3.43.06,7.67,0c2.89,0,5.07,0,6.54-.09l3.49.07c1,0,2.54-.06,4.56-.17,1.27,0,2.23,0,2.89-.08v-.08h-1.75l.23-.16v-.07l-3.42.08v.08h1.6l-.16.08c-1.92.11-3.34.16-4.25.16l-.34,0a.39.39,0,0,1-.42-.26h-.15a16.69,16.69,0,0,0-1.83-.07s.05.12.15.23l-10.33,0v-.15l8.28,0v-.08l-.53-.07c-.3,0-.68,0-1.14,0a13.9,13.9,0,0,1-1.67,0l-8.36-.06c-2.54,0-6.31-.06-11.33,0-1.11,0-2.73,0-4.86.16l-.61.08a2.52,2.52,0,0,1-.76.15,5.92,5.92,0,0,0-1.9.24l-.07.07c.1.2.2.31.3.31a1.29,1.29,0,0,0,.38-.08A1.23,1.23,0,0,1,189,200l.08.15a1.23,1.23,0,0,0-.53.15v.08c.56,0,1.34-.06,2.35-.16l.23-.08a1.23,1.23,0,0,1,.53-.15h3.58c.55,0,1.34-.06,2.35-.16Zm6.84-.4h0Zm-14.51.57V200a.83.83,0,0,0,.26-.07c.13-.06.24,0,.34.15Zm8.74.2h-3.88v.08h3.88Zm-4.56,0h-2.51v.08h2.51Zm-1,.38h-2.2v.08h2.28S193.19,200.69,193.14,200.69Zm24.7.84v.08c1.52.1,2.66.15,3.42.14l5.32-.09,3.42-.08h3.57q2.06-.09,6.24-.09a2.66,2.66,0,0,0,.6-.16v-.07l-.38-.08c-.56.05-1.36.08-2.43.08l-7.45,0-.53-.07a.07.07,0,0,1,.08-.08c1.62-.1,2.81-.16,3.57-.16q2.13-.08,6.46-.09a1,1,0,0,0,.45-.08v-.08H237c-.86.05-2.2.08-4,.09h-4.1q-4.56.17-6.84.17h-7.6l-6-.06a17.53,17.53,0,0,0-2,0c-.58,0-1.08,0-1.48,0h-1.67l-6.23.09-7.3.25-.3.07c.05,0,.07,0,.07.08l-.3.45,14.74-.34v-.15l-6.84,0-6.91,0,.34,0a1.09,1.09,0,0,0,.49,0,20.32,20.32,0,0,0,2.06-.08l2.12-.08a18.32,18.32,0,0,1,2.06,0l1.51,0h1.83c1.11-.06,2.76-.09,4.94-.09l5.32.06,7.75,0c1-.06,1.9-.07,2.66,0s1.37,0,1.82,0l4-.09H229v.16C224.05,201.49,220.32,201.58,217.84,201.53ZM205,201.42v.15a4.1,4.1,0,0,0,.91.07,2.94,2.94,0,0,0,1.06-.15A19.6,19.6,0,0,1,205,201.42Zm-16.42.19-.76.16C188.08,202.12,188.33,202.07,188.58,201.61Z" transform="translate(-185.73 -154.63)"/></svg>